<svg xmlns="http://www.w3.org/2000/svg" xmlns:xlink="http://www.w3.org/1999/xlink" viewBox="0 0 1920 1080"><defs><style>.cls-1{fill:#ffef9f;}.cls-2{fill:#d5f1fc;}.cls-3{fill:#9eccdb;}.cls-4{clip-path:url(#clip-path);}.cls-5{fill:#edd37e;}.cls-6{clip-path:url(#clip-path-2);}.cls-7{clip-path:url(#clip-path-3);}.cls-8{clip-path:url(#clip-path-4);}.cls-9{clip-path:url(#clip-path-5);}.cls-10{fill:#f5ab35;}.cls-11,.cls-18{fill:#fff;}.cls-11{stroke:#f5ab35;stroke-miterlimit:10;stroke-width:26.35px;}.cls-12{fill:#2b6db5;}.cls-13{fill:#2f4663;}.cls-14{fill:#ffea6e;}.cls-15{fill:#304961;}.cls-16,.cls-17{fill:#192c46;}.cls-16{stroke:#192c46;stroke-width:31.62px;}.cls-16,.cls-23{stroke-linecap:round;stroke-linejoin:round;}.cls-19{fill:#5b6f7c;}.cls-20{fill:#ffd47d;}.cls-21{fill:#fcea92;}.cls-22{fill:#24374f;}.cls-23{fill:none;stroke:#e8b023;stroke-width:2.63px;}.cls-24{fill:#ffd394;}.cls-25{fill:#8e4a00;}.cls-26{fill:#8fdbf2;}.cls-27{fill:#fdeabd;}</style><clipPath id="clip-path"><path class="cls-1" d="M1158.67,865.28c10.87-2.43,21.58-4.72,29.16-8.87,26.7-14.63,49.3-35.11,77.67-49.09,59.32-29.22,126.09-48,194.9-54.22,112.83-10.14,230.34,13.73,326.6,66.35-38.17,85.91-150,149.85-256.7,169.33s-219.7,3.34-323.46-28.23c-21.75-6.62-43.73-14.17-61.07-27.18-11.57-8.69-36.62-36.83-25.71-51.16C1127.49,872.46,1143.23,868.73,1158.67,865.28Z"/></clipPath><clipPath id="clip-path-2"><path class="cls-2" d="M893.71,570.15c60.77-28.87,109.19-82.73,131.45-146.22s13.18-133.15-16.26-193.65C960.22,261.09,915,299.49,885.34,348.84s-42.48,110.82-25.25,165.79c9.1,7.12,8,22.47,12.69,33S883.27,575.11,893.71,570.15Z"/></clipPath><clipPath id="clip-path-3"><path class="cls-2" d="M892.29,609.54c37.18-117.1,15.91-251.23-55.67-351.08S643.46,98.41,520.62,96c-54.39,98.34-72.15,216.42-49.09,326.41s86.75,211,176.07,279.2c27.39,20.92,65.7,20.21,100.16,19.85s69.56-9.44,97-30.23S881.86,642.39,892.29,609.54Z"/></clipPath><clipPath id="clip-path-4"><path class="cls-3" d="M557,802.11C403.62,800,255.19,726.7,157,614.65,332.75,590,531.26,669.22,638,806.52,604,804.74,590.85,802.58,557,802.11Z"/></clipPath><clipPath id="clip-path-5"><path class="cls-1" d="M1205.53,937.33c63.55-.94,126.31-15.68,186.16-37.06,104.83-37.43,203.84-97,274.27-183.18s115.23-199.42,97.26-309.27c-125.16-34.92-263.2-10.52-375.58,54.72S1187.8,631.39,1130.44,748c-13.66,27.77-25.85,60.26-14,88.86,13.81,33.35,30.07,66.52,57.44,90.06,5.35,4.61,11.1,9,17.74,11.38S1198.46,937.43,1205.53,937.33Z"/></clipPath></defs><g id="Layer_11" data-name="Layer 11"><path class="cls-1" d="M1158.67,865.28c10.87-2.43,21.58-4.72,29.16-8.87,26.7-14.63,49.3-35.11,77.67-49.09,59.32-29.22,126.09-48,194.9-54.22,112.83-10.14,230.34,13.73,326.6,66.35-38.17,85.91-150,149.85-256.7,169.33s-219.7,3.34-323.46-28.23c-21.75-6.62-43.73-14.17-61.07-27.18-11.57-8.69-36.62-36.83-25.71-51.16C1127.49,872.46,1143.23,868.73,1158.67,865.28Z"/><g class="cls-4"><path class="cls-5" d="M1063.62,1009.61c38-32.31,94.85-54.35,151.3-74.46,102-36.34,208.1-69.29,321.17-90.45s233.82-30.22,350.54-18.34c-12.05,31.9-53.19,61.84-90.8,85.34s-83.2,41.89-130.93,57.26C1480.73,1028.26,1264.78,1043.09,1063.62,1009.61Z"/></g><path class="cls-5" d="M1272.64,634.6c56.61-82.21,65.23-195.09,21.78-285-72.37,100.38-83,228.19-34.65,342.07C1266.5,666.16,1257.65,656.37,1272.64,634.6Z"/><path class="cls-2" d="M893.71,570.15c60.77-28.87,109.19-82.73,131.45-146.22s13.18-133.15-16.26-193.65C960.22,261.09,915,299.49,885.34,348.84s-42.48,110.82-25.25,165.79c9.1,7.12,8,22.47,12.69,33S883.27,575.11,893.71,570.15Z"/><g class="cls-6"><path class="cls-3" d="M799,576.45c41.86-25,72.17-65.26,98.41-106.35a1027.12,1027.12,0,0,0,123.49-276.38c-69.1,42.4-127.1,90.39-165.83,161.61S797.05,495.4,799,576.45Z"/></g><path class="cls-2" d="M892.29,609.54c37.18-117.1,15.91-251.23-55.67-351.08S643.46,98.41,520.62,96c-54.39,98.34-72.15,216.42-49.09,326.41s86.75,211,176.07,279.2c27.39,20.92,65.7,20.21,100.16,19.85s69.56-9.44,97-30.23S881.86,642.39,892.29,609.54Z"/><g class="cls-7"><path class="cls-3" d="M820.78,738C818,605.66,781.11,469.76,714.24,345.61S550.66,109.3,435,21.77c-67.44,123.94-71.1,287,5.94,424.51S666.56,707,820.78,738Z"/></g><path class="cls-3" d="M557,802.11C403.62,800,255.19,726.7,157,614.65,332.75,590,531.26,669.22,638,806.52,604,804.74,590.85,802.58,557,802.11Z"/><g class="cls-8"><path class="cls-2" d="M663.07,785.42c-190.35-18.21-375.58-83.95-533-189.18,141.29-30.35,293.59-6.29,416.71,67.17C595,692.19,642.69,734.11,663.07,785.42Z"/></g><path class="cls-1" d="M1205.53,937.33c63.55-.94,126.31-15.68,186.16-37.06,104.83-37.43,203.84-97,274.27-183.18s115.23-199.42,97.26-309.27c-125.16-34.92-263.2-10.52-375.58,54.72S1187.8,631.39,1130.44,748c-13.66,27.77-25.85,60.26-14,88.86,13.81,33.35,30.07,66.52,57.44,90.06,5.35,4.61,11.1,9,17.74,11.38S1198.46,937.43,1205.53,937.33Z"/><g class="cls-9"><path class="cls-5" d="M1140,994c101.66-137.71,208.17-273.07,334.87-388.17S1750.06,396,1915.19,350.93c1.19,121.92-61.67,241.66-138.5,336.32s-176.46,168.21-279.6,233.22c-50.78,32-103.17,62.43-160.1,81.45S1198.12,1009.17,1140,994Z"/></g></g><g id="Layer_4" data-name="Layer 4"><rect class="cls-10" x="300.2" y="280.21" width="169.28" height="33.59" rx="5"/><rect class="cls-10" x="232.35" y="596.38" width="318.81" height="55.33" rx="6"/><rect class="cls-10" x="295.59" y="643.81" width="198.93" height="48.74" rx="6"/><rect class="cls-10" x="249.48" y="790.04" width="297.73" height="48.74" rx="6"/><rect class="cls-10" x="217.81" y="606.18" width="50.06" height="357.5" rx="6" transform="translate(152.44 -31.72) rotate(10.87)"/><rect class="cls-10" x="366.67" y="557.44" width="50.06" height="357.5" rx="6"/><rect class="cls-10" x="522.13" y="611.45" width="50.06" height="357.5" rx="6" transform="translate(1233.56 1462.99) rotate(169.13)"/><rect class="cls-10" x="366.73" y="178.77" width="34.25" height="163.36" rx="6"/><rect class="cls-10" x="314.03" y="231.46" width="34.25" height="163.36" rx="6" transform="translate(46.8 -43.04) rotate(8)"/><rect class="cls-10" x="419.42" y="231.46" width="34.25" height="163.36" rx="6" transform="translate(912.43 562.48) rotate(172)"/><rect class="cls-11" x="273.69" y="309.2" width="271.53" height="321.68" rx="6" transform="translate(-121.87 144.03) rotate(-17.41)"/><path class="cls-12" d="M346.08,502.53c.9-9.95.25-26.56,11-31.76,4.59-2.22,10.17-1.18,14.7,1.15,7.42,3.82,13.58,10,19.85,15.39,7.61,6.53,15.4,13.14,24.59,17.36a4.06,4.06,0,0,0,2.29.51c1.73-.3,2.35-2.43,2.59-4.18,3.34-23.69,6.38-47.41,9.71-71.1,1.7-12.12,3.47-24.23,5.4-36.32,1.63-10.19,1.35-27.83,14-31.26,9.94-2.69,13.61,9.11,17,15.84a573.37,573.37,0,0,1,28.52,68.4c8.07,23.07,16,46,24.2,69.06q5.29,15,10.82,29.85c2.23,6-5.58,7.43-9.77,9.34q-8.28,3.78-16.68,7.36-16.77,7.14-33.89,13.43c-30.3,11.13-61.29,19.69-92.58,27.51-8.72,2.08-17.71,4.83-26.63,5.84-6.4.73-10.72-1.62-10.86-8.56-.23-20.62.63-41.23,2.23-61.78q1.22-15.63,3-31.21C345.78,505.8,345.93,504.17,346.08,502.53Z"/><circle class="cls-12" cx="346.31" cy="429.73" r="17.78"/></g><g id="Layer_5" data-name="Layer 5"><rect class="cls-13" x="1389.02" y="533.15" width="31.62" height="483.48" rx="4"/><rect class="cls-13" x="1487.97" y="520.87" width="31.62" height="504.88" rx="4" transform="translate(-169.84 531.72) rotate(-19)"/><rect class="cls-13" x="1291.68" y="522.19" width="31.62" height="504.88" rx="4" transform="translate(2291.54 1932.73) rotate(-161)"/></g><g id="Layer_3" data-name="Layer 3"><path class="cls-14" d="M585.22,509.7c5.47,1.18,11.15.85,16.74.35a297.17,297.17,0,0,0,47.85-8.22c5.22-1.34,11.3-3.31,16.66-3.83-4.55-16.92-9.15-34-17-49.65s-19.15-30.1-34.43-38.67c-17.39,1.19-34.61,6.74-51.25,11.92-2.63.82-5.41,1.07-8,2-.6,25.15,6.92,49.3,16.91,72.39,1.23,2.85,3.43,5.54,5,8.23a16.69,16.69,0,0,0,2.67,3.84,5.15,5.15,0,0,0,4.24,1.59C585.08,509.62,585.11,510.13,585.22,509.7Z"/><path class="cls-15" d="M578,488.36H694.25a15,15,0,0,1,15,15v36.38a0,0,0,0,1,0,0H563a0,0,0,0,1,0,0V503.36A15,15,0,0,1,578,488.36Z"/><polygon class="cls-16" points="912.76 454.5 845.23 546.46 958.63 558.96 912.76 454.5"/><path class="cls-17" d="M912.36,438.29H1128a12,12,0,0,1,12,12v78.76a12,12,0,0,1-12,12H904.36a12,12,0,0,1-12-12V458.29A20,20,0,0,1,912.36,438.29Z"/><polygon class="cls-16" points="1125.6 454.5 1193.13 546.46 1079.72 558.96 1125.6 454.5"/><rect class="cls-17" x="509" y="522.61" width="819.42" height="504.56" rx="50"/><rect class="cls-18" x="922.35" y="472.94" width="193.66" height="51.38" rx="12"/><circle class="cls-19" cx="1015.54" cy="774.89" r="218.69"/><circle class="cls-18" cx="1016.2" cy="775.55" r="187.73"/><path class="cls-10" d="M930.31,924.56c18.31-2.31,36.52-5.34,54.73-8.33l1.65-.27a3.11,3.11,0,0,0,1.66-.63c1.36-1.32-.3-8.6-.48-10.43-.42-4.36-1-8.71-1.55-13-1.2-8.69-2.63-17.34-3.78-26a354.86,354.86,0,0,0-10.89-49.76c-.62-2-8.18-24.3-8.8-24a304.35,304.35,0,0,1-32.64,8.35c-5.14,1-10.29,1.83-15.45,2.68l-34.53,5.68c-.82.14-2.07-.22-1.76-1a174.93,174.93,0,0,0-5.58,31.79,426.08,426.08,0,0,0-1,44.92"/><path class="cls-20" d="M1016.86,611.19a163.69,163.69,0,1,1-115.75,47.94,162.66,162.66,0,0,1,115.75-47.94m0-25c-104.23,0-188.73,84.49-188.73,188.73s84.5,188.73,188.73,188.73,188.73-84.5,188.73-188.73-84.5-188.73-188.73-188.73Z"/><rect class="cls-15" x="570.92" y="585.84" width="125.15" height="54.01" rx="20.5"/><path class="cls-15" d="M509,658.3h73.34a36,36,0,0,1,36,36V924a32,32,0,0,1-32,32H509a0,0,0,0,1,0,0V658.3A0,0,0,0,1,509,658.3Z"/><path class="cls-21" d="M1016.86,633.27a141.62,141.62,0,1,1-100.14,41.48,140.69,140.69,0,0,1,100.14-41.48m0-22.4a164,164,0,1,0,164,164,164,164,0,0,0-164-164Z"/></g><g id="Layer_6" data-name="Layer 6"><rect class="cls-17" x="1511.54" y="384.28" width="42.16" height="84.31"/><rect class="cls-17" x="1374.53" y="490.99" width="63.23" height="26.35"/><rect class="cls-17" x="1349.5" y="339.49" width="114.61" height="22.4"/><rect class="cls-15" x="1291.53" y="357.93" width="229" height="138.33" rx="12"/><path class="cls-13" d="M1327.1,293.38h159.4a0,0,0,0,1,0,0v44.67a6.71,6.71,0,0,1-6.71,6.71h-146a6.71,6.71,0,0,1-6.71-6.71V293.38A0,0,0,0,1,1327.1,293.38Z"/><path class="cls-22" d="M1359.41,512.07h94.8a15.18,15.18,0,0,1,15.18,15.18v12.49a0,0,0,0,1,0,0H1344.23a0,0,0,0,1,0,0V527.25A15.18,15.18,0,0,1,1359.41,512.07Z"/><circle class="cls-17" cx="1344.23" cy="265.72" r="57.97"/><circle class="cls-17" cx="1469.38" cy="265.72" r="57.97"/><circle class="cls-13" cx="1344.23" cy="265.72" r="15.81"/><circle class="cls-13" cx="1469.38" cy="265.72" r="15.81"/><circle class="cls-18" cx="1469.38" cy="228.17" r="9.88"/><circle class="cls-18" cx="1501.66" cy="247.93" r="9.88"/><circle class="cls-18" cx="1501.66" cy="284.82" r="9.88"/><circle class="cls-18" cx="1468.72" cy="303.26" r="9.88"/><circle class="cls-18" cx="1437.11" cy="284.82" r="9.88"/><circle class="cls-18" cx="1437.11" cy="247.93" r="9.88"/><circle class="cls-18" cx="1376.51" cy="247.93" r="9.88"/><circle class="cls-18" cx="1343.57" cy="229.49" r="9.88"/><circle class="cls-18" cx="1311.95" cy="247.93" r="9.88"/><circle class="cls-18" cx="1311.95" cy="286.14" r="9.88"/><circle class="cls-18" cx="1343.57" cy="303.26" r="9.88"/><circle class="cls-18" cx="1376.51" cy="284.82" r="9.88"/><path class="cls-13" d="M1548.42,373.74,1616,353.59a5.85,5.85,0,0,1,7.52,5.6V493.55a5.85,5.85,0,0,1-7.61,5.58l-67.49-21.31Z"/></g><g id="chr_1" data-name="chr 1"><path class="cls-14" d="M569.35,430.51,565.71,418c-2.4-8.24-4.91-16.71-10.44-23.43-5-6.1-11.22-11.84-19.17-13.75l-45.57-11c-5.65,8.92-11.52,19.34-14.66,29.28,18.83,6.86,36.36,13.42,55.19,20.28,12.26,4.47,24.56,9,37.3,12.07a10.06,10.06,0,0,1,1.24.24C569.53,431.31,569.45,430.9,569.35,430.51Z"/><path class="cls-14" d="M629.72,431.1c6.46,6.37,10.28,14.87,14,23.17l10.84,24.43a5,5,0,0,1,.62,3.18,4.44,4.44,0,0,1-.95,1.62,31,31,0,0,1-5.31,5.19c-.5.38.25.29.47-.29-2,2-4.84,2.79-7.58,3.47-8.87,2.19-17.76,4.27-26.66,6.32s-16.39,4.36-25.3,5.62c-1.48-2.63-2.47-5.36-3.77-8.12-2.82-6-5.89-11.89-8.86-17.81a6.61,6.61,0,0,1-1-3.3l0-.2c.28-1.85,2.37-2.38,3.82-3.11,1.9-1,3.84-1.87,5.79-2.72a110.28,110.28,0,0,1,24.45-7.38c2.1-.37,4.21-.69,6.33-.94.61-.07,6-.25,6.12-.54-.12.35.5-.67.38-.31a67.37,67.37,0,0,1-12.35-22.79,21.89,21.89,0,0,1,16.5-7.74C629,428.89,628.48,429.88,629.72,431.1Z"/><path class="cls-23" d="M572.24,476.5c14.32-6.23,30.17-12.15,45.49-15.14-4.05-7-9.83-18.68-13.87-25.7"/><circle class="cls-24" cx="564.99" cy="491.65" r="27.67"/><circle class="cls-24" cx="474.09" cy="379.67" r="27.67"/><path class="cls-24" d="M643.71,357.76l.15.89c2.18,12.88.15,26.24-6.7,37.13-6,9.47-14.55,16.79-23.77,22.07a85.05,85.05,0,0,1-40,11.4c-21.5.52-44.09-8.75-55.48-29.44-9.68-17.59-9.46-42.59-2.87-61.79.83-2.42,1.78-5.39,2.74-7.75,11.21.59,22.15,3.72,33,6.79,18.19,5.15,36.47,10.19,55.15,12.53,5.11.64,10.25,1.08,15.35,1.88,7,1.09,13.9,2.86,20.79,4.62,1,.26,2.26.9,2.1,2C643.8,357.63,644.07,358.21,643.71,357.76Z"/><path class="cls-25" d="M642.09,385.26a.2.2,0,0,0,.16,0,1.1,1.1,0,0,0,.45-.32c.27-.26.49-.57.75-.84.58-.6,1.13-1.22,1.71-1.82,1-1.06,2-2.14,3-3.25a63.33,63.33,0,0,0,5.28-6.93,52.32,52.32,0,0,0,4.19-7.72c.15-.35.3-.69.44-1,4.92-12,4.69-25.82.58-38.13S646.7,302,637.21,293.18A75.73,75.73,0,0,0,623,282.62a56.89,56.89,0,0,0-16-6l-1.35-.28c-14-2.71-31.51-2.59-43.68,5.81-.37.25-4.06,2.81-3.46,3.32-4.14-3.51-10.08-4.39-15.37-3.2s-10,4.24-14.06,7.84c-10.55,9.36-17.12,22.34-22.5,35.38a145.48,145.48,0,0,0-6.59,19.06c-.75,2.9-1.52,5.8-2,8.75-.25,1.39-.53,2.78-.68,4.18a9.29,9.29,0,0,0,.2,4.23c.2.48.08.45.54.26,1.69-.72,3.16-2.32,4.59-3.44l5-3.9c2.17-1.7,4.37-3.37,6.49-5.14,1-.86,2-1.76,3-2.7.73-.7,1.4-1.44,2.08-2.19a1,1,0,0,1,.3-.24c.58-.21,2.46,3.05,2.82,3.56,1,1.36,2,2.7,3.08,4a60.3,60.3,0,0,0,7,6.88,72.1,72.1,0,0,0,19.25,11.44,85.15,85.15,0,0,0,23.37,5.61c7,.7,15.13,1.8,22-.27,2.18-.65,0-1.72-1-2.78a39.89,39.89,0,0,1-3.24-3.76,40.57,40.57,0,0,1-2.75-4.13c-.22-.38-2.53-4.43-.63-3.17,3.74,2.49,7.42,5.13,11.3,7.4a57,57,0,0,0,13.3,5.91,52.08,52.08,0,0,0,29.51-.16,13.41,13.41,0,0,0,0,2.2,31.78,31.78,0,0,1,0,3.78,11.64,11.64,0,0,1-.62,2.54,8.91,8.91,0,0,1-.52,1.13C642,384.69,641.79,385.07,642.09,385.26Z"/></g><g id="chr_2" data-name="chr 2"><path class="cls-26" d="M947.62,988.16c-6.13,3.69-14,3.44-20.76,1.08s-12.68-6.61-18.54-10.72c-5.18-3.62-10.49-7.28-16.48-9.44s-12.71-2.58-19.1-2.82a7.66,7.66,0,0,0-1.79.11c-.23,0-2.15.52-2.09.83-.57-2.92-1.13-6.07.09-8.79a9.6,9.6,0,0,1,1.94-2.75c4.26-4.42,10.71-5.71,16.26-8.32a35.41,35.41,0,0,0,15.76-14.7c5.56-1,11.45,1.82,16.08,5.07,6.81,4.77,12.86,10.68,20.18,14.64S955.75,958.06,963,954C955.83,963.56,957.85,982,947.62,988.16Z"/><path class="cls-10" d="M942.57,794.83c-4.64-.93-11.61.73-14.3,5-2.53,4-4,9.65-5.16,14.21-3.62,14.15-6.54,28.46-9.77,42.68s-5.13,36.08-6.48,50.56c-1.14,12.21-6,24.93,10.93,27.93l11.06,1.95c13.67,2.41,13.66-2.66,17.53-12.75,5.13-13.39,12.54-35.68,15.38-49.7,3.18-15.62,6.14-31.42,6.41-47.41.19-11.24-.48-28-14.54-30.52Z"/><path class="cls-10" d="M880.14,784.12c-4.12,1.61-8.16,3.55-12.12,5.53q-18.18,9.09-35.93,19-17.55,9.8-34.65,20.37c-8.55,5.29-16.06,14.37-10.32,24.75l2.57,4.66a16,16,0,0,0,15.82,8c3.54-.44,5.64-2.53,8.75-3.89,4.06-1.77,8.15-3.47,12.19-5.28q24.25-10.81,47.49-23.74,6-3.34,12-6.84a43.21,43.21,0,0,0,8.93-6.35c1.24-1.24,2.1-2.87,3.4-4s2.58-1.61,3.69-2.8a16,16,0,0,0,2.3-18.45l-2.58-4.65A15.74,15.74,0,0,0,896,784.6a16,16,0,0,0-13.43-1.39C881.77,783.5,881,783.81,880.14,784.12Z"/><circle class="cls-27" cx="784.34" cy="858.54" r="27.67"/><circle class="cls-27" cx="922.66" cy="938.9" r="27.67"/><path class="cls-25" d="M964.48,795.73c.51.84,2.76.57,3.54.45a38.78,38.78,0,0,0,14.92-5.28c2.15-1.37,1.82.83,1.31,2.28a55.19,55.19,0,0,1-7.12,13.74.47.47,0,0,0-.12.27.43.43,0,0,0,.11.28c1.06,1.58,3.18,1.86,4.94,1.88a44.35,44.35,0,0,0,23.23-6.75c7.21-4.41,13.86-10,17.75-17.66a37.27,37.27,0,0,0,3.84-15.59,44.18,44.18,0,0,0-.48-8.12c-.35-2.32-.68-5.38-1.68-7.5,1,2.13,4.08,2,6,1.47a23.07,23.07,0,0,0,17-22,28,28,0,0,0-.31-5,12.05,12.05,0,0,0-.68-3.15c-.38-.79-1-1.24-1.62-.38-3,4.2-5.49,8.84-10.26,11.33a14.93,14.93,0,0,1-12.53.6c-8-3.56-9.8-15.69-12-23.16-2.79-9.41-5.22-18.92-8.17-28.28-3.48-11-8.34-24-19.25-29.68-7.42-3.86-17.16-4.29-25-1.68A32.69,32.69,0,0,0,939.69,669c.57,8.72,6.81,17,12.37,23.8l15.58,18.94c7.32,8.9,15,18.72,15.38,30.25.35,10.76-5.76,20.49-10.3,30.26a138.46,138.46,0,0,0-8.23,22.94,1,1,0,0,0,0,.47Z"/><ellipse class="cls-27" cx="915.42" cy="753.15" rx="74.43" ry="59.28"/><path class="cls-25" d="M987.32,752.69l-.22.06a16.19,16.19,0,0,1-4.34.34,29.77,29.77,0,0,1-6.38-.78,40.58,40.58,0,0,1-8.41-3c-1.37-.65-2.7-1.36-4-2.12q-1-.57-2-1.17a9.92,9.92,0,0,1-1.84-1.17c3.92,4.15,6.82,10,6.75,15.68-6,.67-18-.53-23.9-2-18.32-4.57-34.79-10.6-46.08-25.73-5.05-6.76-10.35-19-9.4-27.34a101.87,101.87,0,0,1-21.07,30c-10.68,10.52-25.31,21.71-41.08,20.94a.47.47,0,0,1-.33-.11.46.46,0,0,1-.08-.3l0-1.07c-.43-17.1,1.46-34.39,8.35-50.2q1.05-2.43,2.28-4.8a78.87,78.87,0,0,1,4.42-7.53,72.86,72.86,0,0,1,15-16.57,67.78,67.78,0,0,1,9.08-6c3.75-2.12,7.49-4,11.92-3.3,3.48.53,6.15,2.42,8.59,4.84l-.2.1c4.84-7.28,12.91-10.48,21.56-11.83s17.51.09,25.9,2.58A105.5,105.5,0,0,1,988.08,703c5.48,7.94,9.94,16.93,10.62,26.56l.06.9A26,26,0,0,1,995.41,745a23.36,23.36,0,0,1-4.86,5.72A8.87,8.87,0,0,1,987.32,752.69Z"/></g></svg>