<svg xmlns="http://www.w3.org/2000/svg" viewBox="0 0 1080 720"><defs><style>.cls-1,.cls-21,.cls-22,.cls-23{fill:#f5ab35;}.cls-1,.cls-22,.cls-23,.cls-26{stroke:#f5ab35;}.cls-1,.cls-15,.cls-2,.cls-23,.cls-25,.cls-26,.cls-27,.cls-30,.cls-5,.cls-6,.cls-8,.cls-9{stroke-miterlimit:10;}.cls-1,.cls-16,.cls-26{stroke-width:1.5px;}.cls-2,.cls-4,.cls-5,.cls-8,.cls-9{fill:#fff;}.cls-16,.cls-2,.cls-20,.cls-5,.cls-6{stroke:#0f4ea3;}.cls-2{stroke-width:4px;opacity:0.99;}.cls-17,.cls-20,.cls-3,.cls-6{fill:#0f4ea3;}.cls-25,.cls-5,.cls-6,.cls-8,.cls-9{stroke-width:2px;}.cls-7{fill:#ffe75c;}.cls-8{stroke:#ffe75c;}.cls-9{stroke:#8fdbf2;}.cls-10{fill:#ef3535;}.cls-11{fill:#8e3ce5;}.cls-12{fill:#40a9ff;}.cls-13{fill:#ffea6e;}.cls-14{fill:#8fdbf2;}.cls-15,.cls-16,.cls-26{fill:none;}.cls-15{stroke:#fff;}.cls-15,.cls-20,.cls-22{stroke-width:3px;}.cls-16,.cls-20,.cls-22{stroke-linecap:round;stroke-linejoin:round;}.cls-17{font-size:12px;font-family:Montserrat-Medium, Montserrat;font-weight:500;}.cls-18{letter-spacing:-0.01em;}.cls-19{letter-spacing:-0.02em;}.cls-24{fill:#ffd394;}.cls-25,.cls-29{fill:#8e4a00;}.cls-25{stroke:#8e4a00;}.cls-27,.cls-28{fill:#fdeabd;}.cls-27{stroke:#fdeabd;}.cls-30{fill:#dd6e0a;stroke:#dd6e0a;}</style></defs><g id="Layer_3" data-name="Layer 3"><path class="cls-1" d="M910,167H866.14l-1-56.84L865,110c23.64-1,43.81,22.29,45.09,52l-.09,6"/><rect class="cls-2" x="225.23" y="166.43" width="700.77" height="434.07" rx="26"/><path class="cls-3" d="M180,128.5H866.57a25,25,0,0,1,25,25V186a2,2,0,0,1-2,2H157a2,2,0,0,1-2-2V153.5A25,25,0,0,1,180,128.5Z"/><circle class="cls-4" cx="195.01" cy="158" r="9.26"/><circle class="cls-4" cx="229.02" cy="158" r="9.26"/><circle class="cls-4" cx="261.49" cy="158" r="9.26"/><rect class="cls-5" x="509.04" y="218.17" width="360.13" height="47.88" rx="23" transform="translate(-15.54 49.87) rotate(-4.1)"/><path class="cls-6" d="M798.67,209.91h47.82a20.58,20.58,0,0,1,20.58,20.58v3.79a20.58,20.58,0,0,1-20.58,20.58H798.67a0,0,0,0,1,0,0V209.91a0,0,0,0,1,0,0Z" transform="translate(-14.48 60.12) rotate(-4.1)"/><rect class="cls-7" x="530.32" y="402.32" width="136.36" height="136.36" rx="12" transform="translate(152.87 -146.74) rotate(16)"/><rect class="cls-8" x="729.49" y="300.14" width="130" height="133.71" rx="12"/><path class="cls-7" d="M804,300.66h43a12,12,0,0,1,12,12V421.34a12,12,0,0,1-12,12H804a0,0,0,0,1,0,0V300.66A0,0,0,0,1,804,300.66Z"/><rect class="cls-9" x="265.63" y="356.5" width="210" height="130.5" rx="12"/><path class="cls-3" d="M391,416.66l-34.32-21.44a6,6,0,0,0-9.18,5.09v42.88a6,6,0,0,0,9.18,5.09L391,426.84A6,6,0,0,0,391,416.66Z"/><rect class="cls-10" x="267" y="256.44" width="143" height="12.12" rx="6.06"/><rect class="cls-11" x="267" y="315.44" width="76" height="12.12" rx="6.06"/><rect class="cls-12" x="267" y="296.44" width="135" height="12.12" rx="6.06"/><rect class="cls-13" x="267" y="276.44" width="108" height="12.12" rx="6.06"/><rect class="cls-10" x="749" y="456.44" width="120" height="12.12" rx="6.06"/><rect class="cls-11" x="808" y="515.44" width="61" height="12.12" rx="6.06"/><rect class="cls-12" x="734" y="496.44" width="135" height="12.12" rx="6.06"/><rect class="cls-13" x="770" y="476.44" width="99" height="12.12" rx="6.06"/><rect class="cls-14" x="531" y="324.44" width="135" height="12.12" rx="6.06"/><rect class="cls-14" x="267" y="530.44" width="113" height="12.12" rx="6.06"/><rect class="cls-14" x="267" y="510.44" width="85" height="12.12" rx="6.06"/><rect class="cls-14" x="267" y="550.44" width="51" height="12.12" rx="6.06"/><rect class="cls-14" x="560" y="344.44" width="106" height="12.12" rx="6.06"/></g><g id="Layer_5" data-name="Layer 5"><circle class="cls-15" cx="832.4" cy="227.67" r="9.11"/><rect class="cls-4" x="812.31" y="239.27" width="18.6" height="4.19" rx="2.09" transform="translate(1525.31 -246.58) rotate(128.89)"/><circle class="cls-14" cx="283.5" cy="219.5" r="15"/><line class="cls-16" x1="309" y1="202.5" x2="309" y2="237.5"/><text class="cls-17" transform="translate(319.26 224.36)">SMK NEGERI 7 <tspan class="cls-18" x="89.9" y="0">S</tspan><tspan x="97.38" y="0">AMARIN</tspan><tspan class="cls-19" x="148.41" y="0">D</tspan><tspan x="157.47" y="0">A</tspan></text></g><g id="Layer_6" data-name="Layer 6"><rect class="cls-3" x="40" y="387.02" width="155" height="78.96" rx="12"/><polyline class="cls-20" points="114.06 462.3 181.77 488.64 154.02 453.49"/><rect class="cls-21" x="387" y="15" width="155" height="78.96" rx="12"/><polyline class="cls-22" points="471.5 87.58 416.72 114.31 439.7 74.92"/><path class="cls-4" d="M90.65,436.57V426.22H83.22v10.35H79.39V413.8h3.83v9.27h7.43V413.8h3.82v22.77Z"/><path class="cls-4" d="M108.6,416.88v19.69h-3.83V416.88H97.94V413.8h17.65l-.39,3.08Z"/><path class="cls-4" d="M134.31,413.8l1.28,22.77h-3.5l-.54-11.09c0-.84-.06-1.65-.07-2.43s0-1.53,0-2.24,0-1.38,0-2,0-1.16.05-1.66l-3.35,15.4h-3.33l-3.6-15.4c0,.47.06,1,.09,1.66s0,1.31,0,2,0,1.48,0,2.27,0,1.59,0,2.38l-.44,11.06h-3.43l1.28-22.77h4.59l3.25,15.26,3.1-15.26Z"/><path class="cls-4" d="M140.38,436.57V413.8h3.82v19.56h10.2l-.41,3.21Z"/><path class="cls-4" d="M413.29,64.44h-3.71V42.36h3.71Zm.16-11.79,7.68-10.29h4.08l-7.73,10,8.34,12h-4.45Z"/><path class="cls-4" d="M444,53.4a17.39,17.39,0,0,1-1,6,8.8,8.8,0,0,1-2.81,4,7.4,7.4,0,0,1-4.64,1.44,7.53,7.53,0,0,1-4.64-1.41,8.53,8.53,0,0,1-2.82-4,17.46,17.46,0,0,1-.94-6,17.42,17.42,0,0,1,.94-6,8.77,8.77,0,0,1,2.82-4,7.32,7.32,0,0,1,4.64-1.47,7.45,7.45,0,0,1,4.64,1.43,8.6,8.6,0,0,1,2.81,4A17.58,17.58,0,0,1,444,53.4Zm-3.84,0A15.08,15.08,0,0,0,439.07,47a3.91,3.91,0,0,0-7,0A15.18,15.18,0,0,0,431,53.43a14.72,14.72,0,0,0,1.08,6.41,3.92,3.92,0,0,0,7,0A15.26,15.26,0,0,0,440.14,53.4Z"/><path class="cls-4" d="M456.58,45.35V64.44h-3.71V45.35h-6.62v-3h17.12l-.39,3Z"/><path class="cls-4" d="M468.2,64.44V42.36h3.71v19h9.89l-.4,3.1Z"/><path class="cls-4" d="M499.82,42.36v2.83h-4.77v16.4h4.77v2.85H486.54V61.59h4.76V45.19h-4.76V42.36Z"/><path class="cls-4" d="M514.86,64.44l-7-18.78c0,.33.08.8.14,1.41s.11,1.31.17,2.11.11,1.65.16,2.54.06,1.79.06,2.69v10h-3.3V42.36h4.82l7,18.8c0-.45-.12-1.1-.2-2s-.16-1.89-.22-3-.11-2.4-.11-3.72V42.36h3.3V64.44Z"/></g><g id="p1"><path class="cls-23" d="M867.44,224.9a4.67,4.67,0,0,0,.44,3.2,92.26,92.26,0,0,0,30.78-70.95l-1-4.59a.44.44,0,0,1-.36.61c-3.4-11.13-7.15-22.83-15.8-30.62a14.22,14.22,0,0,0-5.73-3.43c-3.84-1-7.85.61-11.39,2.43A76.33,76.33,0,0,0,854,128a69.89,69.89,0,0,1,16,22c-3.89,17.35-8.74,34.88-14.29,51.77"/><path class="cls-23" d="M800,102a61.16,61.16,0,0,0-20.69,5.61c-16.48,7.82-28.32,22.72-35.53,38.89s-10.26,33.7-13.12,51.05l27.88-5.25a2.38,2.38,0,0,0,.46,2c0-4.34,1.34-8.55,2.71-12.67,6.27-18.93,12.81-38.31,25.42-53.76a55.78,55.78,0,0,1,21.77,2.84"/><path class="cls-24" d="M859.94,131.48a45.77,45.77,0,0,0,19.82-21.09,44.15,44.15,0,0,0,2.51-6.84c.58-2.09.62-4.33,1.92-6,3.19-4.15,5-8.19,4-13.62a23.69,23.69,0,0,0-7.71-12.82,57.32,57.32,0,0,0-12.76-8.21c-9.84-5-20.21-9.24-31.12-11s-22.46-.78-32.36,4.12c-.48.24-1,.49-1.44.75-8.79,4.81-17.69,14.11-18.25,24.58C784.27,87,781.89,92.16,782,98a36.76,36.76,0,0,0,4.39,16.79c4.73,8.71,13,15.37,22.3,19.13s19.69,4.74,29.73,3.72A58.39,58.39,0,0,0,859.94,131.48Z"/><path class="cls-25" d="M806.67,48.64c-3.48,0-6.37,2.57-8.72,5.14a79,79,0,0,0-16.77,29A44.6,44.6,0,0,0,803.61,72.7c1-.88,2.12-2.06,1.87-3.39"/><path class="cls-25" d="M804.53,66.72c1.92,9.84,10.25,17.5,19.6,21.14s19.64,3.87,29.67,3.58L844.51,77.2c8.92,7.66,18.54,15.65,30.19,17.24a67.06,67.06,0,0,0-6.62-23.73"/><path class="cls-25" d="M838,36.94,813.69,29c-.64,2.55,1,5.12,2.74,6.85a20.14,20.14,0,0,0,9,5.15"/><path class="cls-25" d="M820,38.2c-7.31-.91-14.76,1.35-21,5.08s-11.6,8.84-16.63,14.08c-3.9,4.07-7.81,8.47-9.2,13.86a18.57,18.57,0,0,0,14.63-5.43"/><path class="cls-25" d="M837,36.22a45.48,45.48,0,0,1,36.34,3.62c8.17,4.76,14.21,12.06,18.3,20,2.54,4.93,4.4,10.25,4.36,15.68A24.11,24.11,0,0,1,892.24,88a26.69,26.69,0,0,1-4.3,5.24c-.89.84-4.23,4.28-5.52,3.62a12.44,12.44,0,0,1-3.87-3.5,39.88,39.88,0,0,1-5.47-9.18"/><path class="cls-25" d="M801.45,56c.39,3.59,1.72,7,3,10.38a6.26,6.26,0,0,0,.94,1.88,5.13,5.13,0,0,0,1.28,1c5.11,3.11,11.56,2.41,17.54,2.21a88.57,88.57,0,0,1,21.42,1.88,17.85,17.85,0,0,0,6,.64c1.46-.2,2.84-.79,4.29-1.06a34.14,34.14,0,0,1,4.41-.29,43.81,43.81,0,0,0,5.46-.8l6.61-1.25a2.28,2.28,0,0,0,1.09-.4,2,2,0,0,0,.56-1.57c.06-3.11-1.82-5.9-3.73-8.37a105.48,105.48,0,0,0-19.6-19.38c-3.32-2.52-7.08-4.94-11.25-4.91a23,23,0,0,0-5.13.85c-5.16,1.22-10.47,2.1-15.75,1.59a9,9,0,0,0-3.72.08c-1,.33-1.52,1.1-2.36,1.59-1.16.68-2.61.73-3.78,1.49a13.14,13.14,0,0,0-2,1.73C802.87,47.15,800.85,50.35,801.45,56Z"/><circle class="cls-24" cx="745.5" cy="201.5" r="20.5"/><circle class="cls-24" cx="858.5" cy="222.5" r="20.5"/><path class="cls-26" d="M790.15,126.07c-12.28,11.67-19.23,27.73-25.88,43.32"/></g><g id="p2"><path class="cls-27" d="M440.54,615.57a53.42,53.42,0,0,1,.19,10.35l-1.46,31.81q-.13,2.89-.26,5.79l-.09-.41c.13.64-.08,1.36.29,2s1.08.3,1.71.61a9.54,9.54,0,0,0,4.58.8c2.81,0,4.45-.35,7,1a3.4,3.4,0,0,1,1,1c.35.51,1.3.58,1.12,1.17-.75,2.5-3.33,3.94-5.77,4.88-5.71,2.19-12.23,1.92-18.35,2-2.09,0-2.55-.25-4-2s-2.52-3-2.77-5.15c-.32-2.69-.72-5.38-1.08-8.06-.75-5.48-1.46-11-1.67-16.5-.35-9.51-.74-16.77-.48-26.29"/><path class="cls-27" d="M475.13,614.43a54.08,54.08,0,0,1,1,10.31q.6,19,1.21,38a1.81,1.81,0,0,0,.42,1.33,1.68,1.68,0,0,0,1,.31c4.22.27,8.6-1.07,12.63.22a3,3,0,0,1,1.73,1.13c.71,1.1,0,2.55-.8,3.56-5,6-14.8,7.18-22.07,7.78-2.09.17-4.12.27-5.7-1.36-1.31-1.36-1.61-3.23-1.93-5-3.1-17.25-6.4-34.23-7.27-51.78"/><path class="cls-27" d="M490.22,502.39q10.69-11.59,21.63-23a3.28,3.28,0,0,1,2.42-1.33,8.49,8.49,0,0,1,3.51.59,14.18,14.18,0,0,1,6.79,4.28,4.71,4.71,0,0,1,1.11,2.59,6.62,6.62,0,0,1-1.46,3.68l-19.4,24.51c-.57.72-2.34.94-3.25.81-1.19-.17-2-1.3-2.61-2.32l-3.57-5.83a11.64,11.64,0,0,0-2.23-2.88,3.87,3.87,0,0,0-3.39-.93C489.94,502.48,490.09,502.54,490.22,502.39Z"/><path class="cls-23" d="M515.36,515.55c-4.62,4.48-10.27,7.7-15.33,11.62-5.41,4.2-10.77,8.46-16,12.84-1.84,1.53-3.68,3.06-5.37,4.74-.71.71-1.69,1.41-1.75,2.4a22.24,22.24,0,0,0,.49,3.78q1,7.56,2.08,15.1,1.44,9.93,3,19.85c.55,3.44,1.09,6.88,1.65,10.31.32,2,3.18,21.22,2.89,21.25-3.82.34-7.6,1-11.41,1.48-10.27,1.19-20.74,1.39-31.08,1.67-9.95.27-20,0-29.91-.59-2.23-.14-4.45-.32-6.67-.61-1.49-.19-4-.39-4.83-1.95a2,2,0,0,1-.15-.84c-.3-7.05,0-14.11.39-21.15.38-6.85.79-13.66,1.77-20.46.23-1.58.47-3.15.74-4.73q.6-3.54,1.32-7A443.73,443.73,0,0,1,421,512c0,.37.12-.16-.16.09.76-.65.42-1.92.86-2.82a3.08,3.08,0,0,1,2.13-1.36c2.18-.56,4.46-.58,6.66-1,2.57-.53,5-1.63,7.57-2.11a34.9,34.9,0,0,1,7.85-.23q6.15.24,12.29.08a65,65,0,0,0,10.71-1,78.29,78.29,0,0,0,11.63-3.54c4-1.44,8.73-2.43,12.69-3.87a29.17,29.17,0,0,1,13.28,6.9c3.55,3.11,7.21,6.25,9.12,10.68.15.35.35.67.49,1a5.4,5.4,0,0,0-1,.94"/><circle class="cls-28" cx="526.5" cy="475.5" r="19"/><path class="cls-28" d="M441.71,513.54c2,5.51,8.73,6.85,13.92,6.66,7-.27,14-2.91,20.15-6.27,8-4.42,15.31-11.31,18-20.3a25.41,25.41,0,0,0,1-5.4,28,28,0,0,0-.39-6.66A160.87,160.87,0,0,0,488.41,458c-1.58-4.76-2.61-9.41-5.13-13.72-2.21-3.79-5-7.67-9.1-8.93-3.35-1-7-.05-10,1.84a32.59,32.59,0,0,0-7.57,7.4q-4.68,5.82-8.79,12.08c-3.43,5.24-6.6,10.81-7.89,17-1,4.63-.83,9.42-.69,14.16a47.5,47.5,0,0,0,.72,8.26c.5,2.48,1.4,4.85,1.91,7.33A25,25,0,0,1,441.71,513.54Z"/><circle class="cls-28" cx="479.5" cy="409.5" r="19"/><path class="cls-29" d="M445.61,535.65c-1.08-.08-3.06-5.09-3.58-6.41-1.88-4.7-3.3-8.59-2-13.47a18.82,18.82,0,0,0,9.24,14.51,17.68,17.68,0,0,0,6,2.18,17.25,17.25,0,0,0,3.21.27c.53,0,1.07,0,1.61-.09s1.1,0,1.42-.32a.25.25,0,0,0,.1-.15s-1.29-.62-1.45-.75a7.38,7.38,0,0,1-1.23-1.39c-10.18-13.8-10.67-31.95-10.74-49.1a5.25,5.25,0,0,1,0-1.77,5.1,5.1,0,0,1,1.56-1.86,31.67,31.67,0,0,0,2.31-2.17,66.74,66.74,0,0,0,4.9-6.45,49.08,49.08,0,0,1-3.05,14.6c-.25.69-.5,1.38-.81,2.05a6.79,6.79,0,0,0-.71,1.55c-.07.38.07.42.43.34s.68-.14,1-.26a14.93,14.93,0,0,0,1.58-.71c1-.51,2-1,3-1.63a30.92,30.92,0,0,0,5.27-4.21,32,32,0,0,0,2.46-2.74c3.37-4.21,5.58-8.95,7.61-13.68,1.93-4.52,3.84-9.2,4-14.19a10.07,10.07,0,0,0-.08-1.73c-.06-.46-.4-1.16-.22-1.62.32-.81,2.09,1.6,2.31,1.92.66.95,1.29,1.92,1.93,2.88a64.26,64.26,0,0,1,3.73,6.37q.48.94.93,1.92c.75,1.62,1.46,3.26,2.21,4.88a48.25,48.25,0,0,1,1.91,4.79c.1.3.28.51.61.34a4.21,4.21,0,0,0,1.43-1.67,11.85,11.85,0,0,0,1.16-2.72,29.91,29.91,0,0,0,.94-5.48A38.59,38.59,0,0,0,489,435.77a49.6,49.6,0,0,0-24.37-19.9,66.58,66.58,0,0,0-32.8-3.91c-9.79,1.31-25.05,8.42-31.06,16.65-9.63,13.2-10.69,30.84-11.44,47.16-.35,7.92-.51,16.05-3.44,23.42-3.06,7.66.61,17.09,6.17,23.81,5.27,6.35,12.35,12.43,19.92,15.71a2.78,2.78,0,0,0,1.24.18c.21,0,.52,0,.54-.29a.84.84,0,0,0-.08-.3c-.41-1-.84-1.93-1.19-2.92s-.8-2.29-1.13-3.46a20.74,20.74,0,0,1-.82-7.26,20.14,20.14,0,0,1,.63-3.45,29.18,29.18,0,0,1,1.95-5.29,44.5,44.5,0,0,0,15.72,17.79c3.8,2.44,8.52,2.89,12.93,2.66a16.27,16.27,0,0,0,2.09-.22,8.19,8.19,0,0,0,1.09-.25c.13,0,.52-.08.57-.24s-.24-.38-.36-.5a10.38,10.38,0,0,0-.9-.85l.25.29"/><path class="cls-30" d="M456.46,674.63c0-2.28-.11-4.72-1.79-6.4s-4.36-2.15-6.75-2.34a53.18,53.18,0,0,0-5.78-.14v-4.07c0-.4,0-.62-.15-.78a1.24,1.24,0,0,0-.53-.3,6.4,6.4,0,0,0-1.73-.29c-2.45-.2-4.91-.33-7.36-.37-.74,0-11.28-.31-11.28-.16.13,5.31,1,10.47,1.59,15.75.1.9.12.83.92,1.1a8.37,8.37,0,0,0,1.4.42,59,59,0,0,0,12.95.49c3.36-.19,6.72-.3,10.08-.51,1-.06,8.42-.37,8.43-1Z"/><path class="cls-30" d="M495.86,671.58a10.94,10.94,0,0,0-2.05-5.3c-1.39-1.88-3.57-2.4-5.83-2.45-2.44-.05-4.85.48-7.29.53l-.42-3.93a1.56,1.56,0,0,0-.19-.73c-.31-.5-1-.53-1.6-.51-6.05.26-12.08.74-18.09,1.4-.75.09-1-.05-1.22.57a7.06,7.06,0,0,0,.41,2.26q.42,2.25.9,4.5c.62,2.86,1.31,5.69,2.06,8.52a1.12,1.12,0,0,0,.27.57c.52.47,1.81.42,2.43.48a51.22,51.22,0,0,0,14.92-1c2.8-.55,5.63-1,8.4-1.68.78-.19,7.36-2.09,7.35-2.41A7.89,7.89,0,0,0,495.86,671.58Z"/></g></svg>